<svg xmlns="http://www.w3.org/2000/svg" version="1.1" xmlns:xlink="http://www.w3.org/1999/xlink" xmlns:svgjs="http://svgjs.dev/svgjs" width="128" height="128" viewBox="0 0 128 128"><g transform="matrix(0.8046875,0,0,0.8046875,12.333870967741937,12.333870967741937)"><svg viewBox="0 0 155 155" data-background-color="#ff908b" preserveAspectRatio="xMidYMid meet" height="128" width="128" xmlns="http://www.w3.org/2000/svg" xmlns:xlink="http://www.w3.org/1999/xlink"><g id="tight-bounds" transform="matrix(1,0,0,1,0.25,0.25)"><svg viewBox="0 0 154.5 154.5" height="154.5" width="154.5"><g><svg></svg></g><g><svg viewBox="0 0 154.5 154.5" height="154.5" width="154.5"><mask id="bbfa7e15-357f-4a81-b5cb-081a970c75ce"><rect width="250" height="250" fill="white"></rect><rect width="59.72834900151285" height="98.3937815784" fill="black" y="28.053109210800002" x="47.38582549924357" id="transform-me"></rect></mask><g transform="matrix(1,0,0,1,50.1007504538578,43.83165)"><svg viewBox="0 0 54.29849909228441 66.8367" height="66.8367" width="54.29849909228441"><g><svg viewBox="0 0 54.29849909228441 66.8367" height="66.8367" width="54.29849909228441"><g><svg viewBox="0 0 54.29849909228441 66.8367" height="66.8367" width="54.29849909228441"><g id="textblocktransform"><svg viewBox="0 0 54.29849909228441 66.8367" height="66.8367" width="54.29849909228441" id="textblock"><g><svg viewBox="0 0 54.29849909228441 66.8367" height="66.8367" width="54.29849909228441"><g transform="matrix(1,0,0,1,0,0)"><svg width="54.29849909228441" viewBox="2 -32.45 26.85 33.050000000000004" height="66.8367" data-palette-color="#ffffff"><g class="wordmark-text-0" data-fill-palette-color="primary" id="text-0"><path d="M16.95 0.6Q12.45 0.6 9.05-1.3 5.65-3.2 3.83-6.68 2-10.15 2-14.85L2-14.85Q2-19.85 4.25-23.88 6.5-27.9 10.48-30.18 14.45-32.45 19.45-32.45L19.45-32.45Q21.3-32.45 23.23-32.18 25.15-31.9 26.48-31.63 27.8-31.35 28.15-31.25L28.15-31.25 28.35-30.95Q28.25-30.65 28.03-29.5 27.8-28.35 27.53-26.5 27.25-24.65 27.1-22.6L27.1-22.6 24.7-22.4Q24.75-22.65 24.8-23.33 24.85-24 24.85-24.85L24.85-24.85Q24.85-29.5 17.5-29.5L17.5-29.5Q14.2-29.5 11.7-27.9 9.2-26.3 7.85-23.38 6.5-20.45 6.5-16.5L6.5-16.5Q6.5-12.15 7.93-8.85 9.35-5.55 11.95-3.73 14.55-1.9 17.95-1.9L17.95-1.9Q21.35-1.9 23.43-3.83 25.5-5.75 26.45-9.8L26.45-9.8 28.85-10Q28.7-9.25 28.2-6.68 27.7-4.1 27.5-1.85L27.5-1.85 27.2-1.4Q27.2-1.35 25.68-0.83 24.15-0.3 21.88 0.15 19.6 0.6 16.95 0.6L16.95 0.6Z" fill="#000000" data-fill-palette-color="primary"></path></g></svg></g></svg></g></svg></g></svg></g></svg></g></svg></g><g mask="url(#bbfa7e15-357f-4a81-b5cb-081a970c75ce)"><g transform="matrix(2.7869152046783623, 0, 0, 2.7869152046783623, 1, 1.0000000000000142)"><svg xmlns="http://www.w3.org/2000/svg" xmlns:xlink="http://www.w3.org/1999/xlink" version="1.1" x="0" y="0" viewBox="22.490000000000002 23.495000000000005 54.720000000000006 54.72" style="enable-background:new 0 0 100 100;" xml:space="preserve" height="54.72" width="54.720000000000006" class="icon-none" data-fill-palette-color="accent" id="none"><g fill="#ffffff" data-fill-palette-color="accent"><path d="M49.85 78.215c-15.087 0-27.36-12.274-27.36-27.36s12.273-27.36 27.36-27.36 27.36 12.274 27.36 27.36S64.937 78.215 49.85 78.215zM49.85 25.494c-13.983 0-25.36 11.376-25.36 25.36s11.377 25.36 25.36 25.36 25.36-11.376 25.36-25.36S63.834 25.494 49.85 25.494z" fill="#000000" data-fill-palette-color="accent"></path><g fill="#ffffff" data-fill-palette-color="accent"><path d="M49.494 66.314c-6.172 0-11.928-0.256-16.207-0.722-6.862-0.747-7.788-1.76-7.788-2.654 0-0.276 0.224-0.5 0.5-0.5 0.274 0 0.498 0.222 0.5 0.496 0.274 0.96 7.765 2.38 22.995 2.38 15.244 0 22.734-1.422 22.997-2.382 0-0.276 0.224-0.497 0.499-0.497 0.276 0 0.5 0.227 0.5 0.503C73.49 66.071 55.124 66.314 49.494 66.314z" fill="#000000" data-fill-palette-color="accent"></path><path d="M75.974 51.355H23.016c-0.276 0-0.5-0.224-0.5-0.5s0.224-0.5 0.5-0.5h52.958c0.276 0 0.5 0.224 0.5 0.5S76.25 51.355 75.974 51.355z" fill="#000000" data-fill-palette-color="accent"></path><path d="M25.995 39.291c-0.276 0-0.496-0.244-0.496-0.52 0-2.788 16.781-3.089 23.995-3.089 7.215 0 23.996 0.301 23.996 3.089 0 0.276-0.224 0.5-0.5 0.5s-0.5-0.224-0.5-0.5c-0.445-0.844-7.881-2.089-22.996-2.089-15.114 0-22.55 1.246-23.003 2.13C26.491 39.088 26.271 39.291 25.995 39.291z" fill="#000000" data-fill-palette-color="accent"></path></g><g fill="#ffffff" data-fill-palette-color="accent"><path d="M37.411 74.85c-4.002 0-4.204-19.989-4.204-23.996 0-6.178 0.33-11.939 0.931-16.223 0.977-6.967 2.336-7.773 3.273-7.773 0.276 0 0.5 0.224 0.5 0.5s-0.224 0.5-0.5 0.5c-0.135 0-1.342 0.194-2.283 6.912-0.594 4.239-0.921 9.951-0.921 16.084 0 14.204 1.663 22.996 3.204 22.996 0.276 0 0.5 0.224 0.5 0.5S37.687 74.85 37.411 74.85z" fill="#000000" data-fill-palette-color="accent"></path><path d="M49.494 77.834c-0.276 0-0.5-0.224-0.5-0.5V24.376c0-0.276 0.224-0.5 0.5-0.5s0.5 0.224 0.5 0.5v52.958C49.994 77.61 49.77 77.834 49.494 77.834z" fill="#000000" data-fill-palette-color="accent"></path><path d="M61.578 74.85c-0.276 0-0.5-0.224-0.5-0.5s0.224-0.5 0.5-0.5c0.657 0 1.695-1.811 2.454-6.916 0.631-4.238 0.978-9.948 0.978-16.08 0-14.204-1.781-22.996-3.432-22.996-0.276 0-0.5-0.224-0.5-0.5s0.224-0.5 0.5-0.5c4.218 0 4.432 19.989 4.432 23.996 0 6.179-0.351 11.942-0.988 16.227C63.985 74.045 62.56 74.85 61.578 74.85z" fill="#000000" data-fill-palette-color="accent"></path></g></g></svg></g></g></svg></g><defs></defs></svg><rect width="154.5" height="154.5" fill="none" stroke="none" visibility="hidden"></rect></g></svg></g></svg>