<svg xmlns="http://www.w3.org/2000/svg" version="1.1" xmlns:xlink="http://www.w3.org/1999/xlink" xmlns:svgjs="http://svgjs.dev/svgjs" width="1000" height="623" viewBox="0 0 1000 623"><g transform="matrix(1,0,0,1,-0.6060606060606233,0.2522267206477409)"><svg viewBox="0 0 396 247" data-background-color="#ff908b" preserveAspectRatio="xMidYMid meet" height="623" width="1000" xmlns="http://www.w3.org/2000/svg" xmlns:xlink="http://www.w3.org/1999/xlink"><g id="tight-bounds" transform="matrix(1,0,0,1,0.2400000000000091,-0.09999999999999432)"><svg viewBox="0 0 395.52 247.2" height="247.2" width="395.52"><g><svg></svg></g><g><svg viewBox="0 0 395.52 247.2" height="247.2" width="395.52"><mask id="86e79154-71b8-4760-8101-f76222d7d5ad"><rect width="640" height="400" fill="white"></rect><rect width="348.05760000000004" height="82.47211858607028" fill="black" y="82.36394070696485" x="23.731199999999973" id="transform-me"></rect></mask><g transform="matrix(1,0,0,1,39.55199999999999,95.58926517571885)"><svg viewBox="0 0 316.416 56.021469648562295" height="56.021469648562295" width="316.416"><g><svg viewBox="0 0 316.416 56.021469648562295" height="56.021469648562295" width="316.416"><g><svg viewBox="0 0 316.416 56.021469648562295" height="56.021469648562295" width="316.416"><g id="textblocktransform"><svg viewBox="0 0 316.416 56.021469648562295" height="56.021469648562295" width="316.416" id="textblock"><g><svg viewBox="0 0 316.416 56.021469648562295" height="56.021469648562295" width="316.416"><g transform="matrix(1,0,0,1,0,0)"><svg width="316.416" viewBox="2 -32.45000076293945 189.7899932861328 33.25" height="56.021469648562295" data-palette-color="#ffffff"><g class="wordmark-text-0" data-fill-palette-color="primary" id="text-0"><path d="M16.95 0.6Q12.45 0.6 9.05-1.3 5.65-3.2 3.83-6.68 2-10.15 2-14.85L2-14.85Q2-19.85 4.25-23.88 6.5-27.9 10.48-30.18 14.45-32.45 19.45-32.45L19.45-32.45Q21.3-32.45 23.23-32.18 25.15-31.9 26.48-31.63 27.8-31.35 28.15-31.25L28.15-31.25 28.35-30.95Q28.25-30.65 28.03-29.5 27.8-28.35 27.53-26.5 27.25-24.65 27.1-22.6L27.1-22.6 24.7-22.4Q24.75-22.65 24.8-23.33 24.85-24 24.85-24.85L24.85-24.85Q24.85-29.5 17.5-29.5L17.5-29.5Q14.2-29.5 11.7-27.9 9.2-26.3 7.85-23.38 6.5-20.45 6.5-16.5L6.5-16.5Q6.5-12.15 7.93-8.85 9.35-5.55 11.95-3.73 14.55-1.9 17.95-1.9L17.95-1.9Q21.35-1.9 23.43-3.83 25.5-5.75 26.45-9.8L26.45-9.8 28.85-10Q28.7-9.25 28.2-6.68 27.7-4.1 27.5-1.85L27.5-1.85 27.2-1.4Q27.2-1.35 25.68-0.83 24.15-0.3 21.88 0.15 19.6 0.6 16.95 0.6L16.95 0.6ZM57.75-8.6L57.9-8.35Q57.05-4.3 56.55 0.05L56.55 0.05 56.3 0.35Q45.8 0 41.15 0L41.15 0Q37.45 0 34.2 0.5L34.2 0.5 34.5-1.8Q36.75-2.1 37.57-2.98 38.4-3.85 38.4-6L38.4-6 38.45-27Q38.45-28.6 38.07-29.15 37.7-29.7 36.6-29.7L36.6-29.7 34.9-29.6 34.8-29.8 35.15-32Q40.25-31.85 42.1-31.85L42.1-31.85Q48.05-31.85 51.35-31.98 54.65-32.1 57.1-32.45L57.1-32.45 57.25-32.15Q56.35-28.2 56.1-23.85L56.1-23.85 53.7-23.65 53.8-25.8Q53.8-27.55 53.35-28.23 52.9-28.9 51.4-29.13 49.9-29.35 46.15-29.35L46.15-29.35Q44.4-29.35 43.75-29.25 43.1-29.15 42.9-28.78 42.7-28.4 42.65-27.4L42.65-27.4 42.25-17.7 47.4-17.65Q49.35-17.65 53.5-18.2L53.5-18.2 53.7-17.95 53-15Q47.45-15.15 46-15.15L46-15.15Q44.35-15.15 42.15-14.8L42.15-14.8 41.95-5.25Q41.95-3.8 42.2-3.23 42.45-2.65 43.22-2.45 44-2.25 45.9-2.25L45.9-2.25Q50.1-2.25 51.87-2.65 53.65-3.05 54.4-4.25 55.15-5.45 55.55-8.35L55.55-8.35 57.75-8.6ZM64.25 0.5L64.55-1.8Q66.5-2.1 67.22-2.98 67.94-3.85 67.94-6L67.94-6 68-27Q68-28.6 67.62-29.15 67.25-29.7 66.14-29.7L66.14-29.7Q65.64-29.7 65.14-29.65 64.64-29.6 64.44-29.6L64.44-29.6 64.34-29.8 64.69-32Q65.3-31.95 66.94-31.9 68.59-31.85 70.3-31.85L70.3-31.85Q71.64-31.85 73.37-32.02 75.09-32.2 75.64-32.3L75.64-32.3 75.44-30.05Q73.8-29.85 73.17-29.4 72.55-28.95 72.42-28.35 72.3-27.75 72.14-25.4L72.14-25.4Q71.84-21.15 71.69-15.7 71.55-10.25 71.55-6.1L71.55-6.1Q71.55-4.3 71.84-3.53 72.14-2.75 72.97-2.5 73.8-2.25 75.8-2.25L75.8-2.25Q78.84-2.25 80.27-2.75 81.69-3.25 82.42-4.7 83.14-6.15 83.75-9.35L83.75-9.35 85.94-9.6 86.09-9.35Q85.94-8.55 85.47-5.75 85-2.95 84.64 0.15L84.64 0.15 84.39 0.45Q82.94 0.35 78.42 0.18 73.89 0 70.94 0L70.94 0Q68.59 0 66.67 0.2 64.75 0.4 64.25 0.5L64.25 0.5ZM88.99 0.6L89.29-1.7Q91.64-2.15 92.47-3.03 93.29-3.9 93.29-6L93.29-6 93.34-27Q93.34-28.6 92.97-29.15 92.59-29.7 91.49-29.7L91.49-29.7 89.39-29.6 89.29-29.8 89.64-32Q90.44-32 90.89-31.95L90.89-31.95 95.59-31.85Q97.84-31.85 101.34-32.3L101.34-32.3 101.14-30.05Q99.09-29.8 98.37-29.23 97.64-28.65 97.54-27.2L97.54-27.2Q97.24-21.35 97.04-14.98 96.84-8.6 96.84-5.6L96.84-5.6Q96.84-3.55 97.29-2.88 97.74-2.2 99.04-2.2L99.04-2.2Q99.89-2.2 101.69-2.35L101.69-2.35 101.79-2.15 101.34 0.15Q100.64 0.15 100.24 0.1L100.24 0.1Q96.74 0 94.79 0L94.79 0Q92.34 0 88.99 0.6L88.99 0.6ZM110.49 0.2L110.89-1.95Q113.39-2.15 114.34-2.58 115.29-3 115.59-4.13 115.89-5.25 115.89-8.1L115.89-8.1 115.89-29.9Q111.64-29.75 110.11-29.43 108.59-29.1 108.04-27.98 107.49-26.85 107.04-23.6L107.04-23.6 104.69-23.4Q105.29-28.15 105.44-32.05L105.44-32.05 105.89-32.45 110.04-31.9 125.54-31.9 129.79-32.45 130.24-32.05Q130.39-27.95 130.99-23.6L130.99-23.6 128.64-23.4Q128.09-26.7 127.54-27.85 126.99-29 125.59-29.35 124.19-29.7 120.19-29.9L120.19-29.9Q119.89-26.9 119.64-19.3 119.39-11.7 119.39-5.6L119.39-5.6Q119.39-3.75 120.04-2.98 120.69-2.2 122.24-2.2L122.24-2.2Q123.74-2.2 124.99-2.35L124.99-2.35 125.14-2.15 124.69 0.15 123.04 0.1 117.34 0Q114.59 0 110.49 0.2L110.49 0.2ZM157.14 0.8Q155.89 0.8 154.46-0.48 153.04-1.75 151.84-3.95L151.84-3.95 146.49-13.65 142.34-13.65 142.19-6.2Q142.19-4.3 142.44-3.48 142.69-2.65 143.39-2.38 144.09-2.1 145.79-2.1L145.79-2.1 145.89-1.9 145.44 0.2Q144.84 0.15 143.04 0.1 141.24 0.05 139.29 0.05L139.29 0.05Q137.54 0.05 136.19 0.1 134.84 0.15 134.39 0.2L134.39 0.2 134.84-2.05Q136.44-2.25 137.24-2.6 138.04-2.95 138.34-3.73 138.64-4.5 138.64-6L138.64-6 138.69-27Q138.69-28.6 138.31-29.15 137.94-29.7 136.84-29.7L136.84-29.7Q136.34-29.7 135.84-29.65 135.34-29.6 135.14-29.6L135.14-29.6 135.04-29.8 135.39-32Q135.99-31.95 137.64-31.9 139.29-31.85 140.94-31.85L140.94-31.85Q142.64-31.85 144.51-31.93 146.39-32 147.09-32.05L147.09-32.05Q151.74-32.05 154.44-29.95 157.14-27.85 157.14-24.2L157.14-24.2Q157.14-21.2 155.21-18.7 153.29-16.2 149.79-14.6L149.79-14.6 155.29-5.9Q156.74-3.5 158.11-2.58 159.49-1.65 161.49-1.65L161.49-1.65 161.69-1.45 161.39 0.25 157.14 0.8ZM147.59-15.95Q147.59-15.8 149.09-16.6 150.59-17.4 151.79-19.05 152.99-20.7 152.99-23.3L152.99-23.3Q152.99-29.9 143.84-29.9L143.84-29.9Q143.34-29.9 143.16-29.68 142.99-29.45 142.94-28.75L142.94-28.75Q142.49-21.1 142.44-16.45L142.44-16.45 147.59-15.95ZM178.69 0.5L178.53 0.15 178.74-1.8Q181.29-2 182.24-2.4 183.19-2.8 183.19-3.7L183.19-3.7Q183.19-4.7 182.74-6.1L182.74-6.1 181.09-11.55Q179.89-11.6 175.89-11.6L175.89-11.6Q173.49-11.6 170.44-11.2L170.44-11.2 168.59-6Q168.14-4.65 168.14-4.05L168.14-4.05Q168.14-2.95 168.84-2.48 169.53-2 171.14-2L171.14-2 173.99-2 174.09-1.8 173.78 0.35Q173.19 0.3 171.03 0.15 168.89 0 166.84 0L166.84 0Q164.99 0 163.41 0.05 161.84 0.1 161.34 0.15L161.34 0.15 161.74-2.2Q163.14-2.35 163.99-3.18 164.84-4 165.64-6.05L165.64-6.05 175.39-31.6 178.53-32.45 178.94-32.45Q179.24-31.25 180.46-26.9 181.69-22.55 183.46-16.6 185.24-10.65 186.89-5.65L186.89-5.65Q187.49-3.8 188.49-3.05 189.49-2.3 191.69-2.1L191.69-2.1 191.79-1.9 191.44 0.15Q190.84 0.15 189.26 0.08 187.69 0 186.14 0L186.14 0Q183.74 0 181.51 0.2 179.28 0.4 178.69 0.5L178.69 0.5ZM171.34-13.65L175.74-13.65Q177.53-13.65 180.39-13.9L180.39-13.9 176.44-27 176.09-27 171.34-13.65Z" fill="#000000" data-fill-palette-color="primary"></path></g></svg></g></svg></g></svg></g></svg></g></svg></g></svg></g><g mask="url(#86e79154-71b8-4760-8101-f76222d7d5ad)"><g transform="matrix(4.480994052084001, 0, 0, 4.480994052084001, 75.16, 1)"><svg xmlns="http://www.w3.org/2000/svg" xmlns:xlink="http://www.w3.org/1999/xlink" version="1.1" x="0" y="0" viewBox="22.48999786376953 23.4949951171875 54.720001220703125 54.720001220703125" style="enable-background:new 0 0 100 100;" xml:space="preserve" height="54.720001220703125" width="54.720001220703125" class="icon-none" data-fill-palette-color="accent" id="none"><g fill="#ffffff" data-fill-palette-color="accent"><path d="M49.85 78.215c-15.087 0-27.36-12.274-27.36-27.36s12.273-27.36 27.36-27.36 27.36 12.274 27.36 27.36S64.937 78.215 49.85 78.215zM49.85 25.494c-13.983 0-25.36 11.376-25.36 25.36s11.377 25.36 25.36 25.36 25.36-11.376 25.36-25.36S63.834 25.494 49.85 25.494z" fill="#000000" data-fill-palette-color="accent"></path><g fill="#ffffff" data-fill-palette-color="accent"><path d="M49.494 66.314c-6.172 0-11.928-0.256-16.207-0.722-6.862-0.747-7.788-1.76-7.788-2.654 0-0.276 0.224-0.5 0.5-0.5 0.274 0 0.498 0.222 0.5 0.496 0.274 0.96 7.765 2.38 22.995 2.38 15.244 0 22.734-1.422 22.997-2.382 0-0.276 0.224-0.497 0.499-0.497 0.276 0 0.5 0.227 0.5 0.503C73.49 66.071 55.124 66.314 49.494 66.314z" fill="#000000" data-fill-palette-color="accent"></path><path d="M75.974 51.355H23.016c-0.276 0-0.5-0.224-0.5-0.5s0.224-0.5 0.5-0.5h52.958c0.276 0 0.5 0.224 0.5 0.5S76.25 51.355 75.974 51.355z" fill="#000000" data-fill-palette-color="accent"></path><path d="M25.995 39.291c-0.276 0-0.496-0.244-0.496-0.52 0-2.788 16.781-3.089 23.995-3.089 7.215 0 23.996 0.301 23.996 3.089 0 0.276-0.224 0.5-0.5 0.5s-0.5-0.224-0.5-0.5c-0.445-0.844-7.881-2.089-22.996-2.089-15.114 0-22.55 1.246-23.003 2.13C26.491 39.088 26.271 39.291 25.995 39.291z" fill="#000000" data-fill-palette-color="accent"></path></g><g fill="#ffffff" data-fill-palette-color="accent"><path d="M37.411 74.85c-4.002 0-4.204-19.989-4.204-23.996 0-6.178 0.33-11.939 0.931-16.223 0.977-6.967 2.336-7.773 3.273-7.773 0.276 0 0.5 0.224 0.5 0.5s-0.224 0.5-0.5 0.5c-0.135 0-1.342 0.194-2.283 6.912-0.594 4.239-0.921 9.951-0.921 16.084 0 14.204 1.663 22.996 3.204 22.996 0.276 0 0.5 0.224 0.5 0.5S37.687 74.85 37.411 74.85z" fill="#000000" data-fill-palette-color="accent"></path><path d="M49.494 77.834c-0.276 0-0.5-0.224-0.5-0.5V24.376c0-0.276 0.224-0.5 0.5-0.5s0.5 0.224 0.5 0.5v52.958C49.994 77.61 49.77 77.834 49.494 77.834z" fill="#000000" data-fill-palette-color="accent"></path><path d="M61.578 74.85c-0.276 0-0.5-0.224-0.5-0.5s0.224-0.5 0.5-0.5c0.657 0 1.695-1.811 2.454-6.916 0.631-4.238 0.978-9.948 0.978-16.08 0-14.204-1.781-22.996-3.432-22.996-0.276 0-0.5-0.224-0.5-0.5s0.224-0.5 0.5-0.5c4.218 0 4.432 19.989 4.432 23.996 0 6.179-0.351 11.942-0.988 16.227C63.985 74.045 62.56 74.85 61.578 74.85z" fill="#000000" data-fill-palette-color="accent"></path></g></g></svg></g></g></svg></g><defs></defs></svg><rect width="395.52" height="247.2" fill="none" stroke="none" visibility="hidden"></rect></g></svg></g></svg>